SRRun01_grf
version=1
nRows=37
nColumns=19
inDegrees=no
endheader
time	ground_force_r_vx	ground_force_r_vy	ground_force_r_vz	ground_force_r_px	ground_force_r_py	ground_force_r_pz	ground_force_r_mx	ground_force_r_my	ground_force_r_mz	ground_force_l_vx	ground_force_l_vy	ground_force_l_vz	ground_force_l_px	ground_force_l_py	ground_force_l_pz	ground_force_l_mx	ground_force_l_my	ground_force_l_mz
    142.49700000	      0.00000000	      0.00000000	      0.00000000	      0.00000000	      0.00000000	      0.00000000	      0.00000000	      0.00000000	      0.00000000	     95.65117080	    180.29395858	    -40.94689708	      0.77868458	      0.00000000	     -0.38006595	      0.00000337	     -4.77172578	      0.00000573
    142.49800000	      0.00000000	      0.00000000	      0.00000000	      0.00000000	      0.00000000	      0.00000000	      0.00000000	      0.00000000	      0.00000000	     91.40282100	    172.49911206	    -40.11702439	      0.77685596	      0.00000000	     -0.37996310	      0.00000328	     -4.49866400	      0.00000561
    142.49900000	      0.00000000	      0.00000000	      0.00000000	      0.00000000	      0.00000000	      0.00000000	      0.00000000	      0.00000000	      0.00000000	     87.19523179	    164.91755027	    -38.69231457	      0.77467389	      0.00000000	     -0.37979593	      0.00000317	     -4.10219958	      0.00000555
    142.50000000	      0.00000000	      0.00000000	      0.00000000	      0.00000000	      0.00000000	      0.00000000	      0.00000000	      0.00000000	      0.00000000	     83.10401135	    157.51348474	    -36.72321068	      0.77208042	      0.00000000	     -0.37962145	      0.00000305	     -3.61486641	      0.00000553
    142.50100000	      0.00000000	      0.00000000	      0.00000000	      0.00000000	      0.00000000	      0.00000000	      0.00000000	      0.00000000	      0.00000000	     79.19224796	    150.25555414	    -34.29526244	      0.76904704	      0.00000000	     -0.37950023	      0.00000291	     -3.06806866	      0.00000553
    142.50200000	      0.00000000	      0.00000000	      0.00000000	      0.00000000	      0.00000000	      0.00000000	      0.00000000	      0.00000000	      0.00000000	     75.50631130	    143.11874025	    -31.52179732	      0.76558773	      0.00000000	     -0.37949106	      0.00000277	     -2.49019626	      0.00000551
    142.50300000	      0.00000000	      0.00000000	      0.00000000	      0.00000000	      0.00000000	      0.00000000	      0.00000000	      0.00000000	      0.00000000	     72.07342388	    136.08634811	    -28.53487122	      0.76176993	      0.00000000	     -0.37964640	      0.00000264	     -1.90541488	      0.00000546
    142.50400000	      0.00000000	      0.00000000	      0.00000000	      0.00000000	      0.00000000	      0.00000000	      0.00000000	      0.00000000	      0.00000000	     68.90114733	    129.15168805	    -25.47525309	      0.75771949	      0.00000000	     -0.38000868	      0.00000250	     -1.33306958	      0.00000536
    142.50500000	      0.00000000	      0.00000000	      0.00000000	      0.00000000	      0.00000000	      0.00000000	      0.00000000	      0.00000000	      0.00000000	     65.97877529	    122.31898502	    -22.48224844	      0.75361610	      0.00000000	     -0.38060734	      0.00000237	     -0.78763339	      0.00000521
    142.50600000	      0.00000000	      0.00000000	      0.00000000	      0.00000000	      0.00000000	      0.00000000	      0.00000000	      0.00000000	      0.00000000	     63.28043124	    115.60326687	    -19.68417475	      0.74967732	      0.00000000	     -0.38145685	      0.00000224	     -0.27915778	      0.00000501
    142.50700000	      0.00000000	      0.00000000	      0.00000000	      0.00000000	      0.00000000	      0.00000000	      0.00000000	      0.00000000	      0.00000000	     60.76950661	    109.02937263	    -17.19021556	      0.74613282	      0.00000000	     -0.38255577	      0.00000212	      0.18585219	      0.00000477
    142.50800000	      0.00000000	      0.00000000	      0.00000000	      0.00000000	      0.00000000	      0.00000000	      0.00000000	      0.00000000	      0.00000000	     58.40397702	    102.63045161	    -15.08418720	      0.74319356	      0.00000000	     -0.38388733	      0.00000201	      0.60332946	      0.00000450
    142.50900000	      0.00000000	      0.00000000	      0.00000000	      0.00000000	      0.00000000	      0.00000000	      0.00000000	      0.00000000	      0.00000000	     56.14208113	     96.44630918	    -13.42051790	      0.74102228	      0.00000000	     -0.38542096	      0.00000189	      0.97060587	      0.00000420
    142.51000000	      0.00000000	      0.00000000	      0.00000000	      0.00000000	      0.00000000	      0.00000000	      0.00000000	      0.00000000	      0.00000000	     53.94780515	     90.52179949	    -12.22255350	      0.73971162	      0.00000000	     -0.38711442	      0.00000178	      1.28573757	      0.00000390
    142.51100000	      0.00000000	      0.00000000	      0.00000000	      0.00000000	      0.00000000	      0.00000000	      0.00000000	      0.00000000	      0.00000000	     51.79559071	     84.90524728	    -11.48317710	      0.73927436	      0.00000000	     -0.38891613	      0.00000166	      1.54733691	      0.00000361
    142.51200000	      0.00000000	      0.00000000	      0.00000000	      0.00000000	      0.00000000	      0.00000000	      0.00000000	      0.00000000	      0.00000000	     49.67371710	     79.64665470	    -11.16760826	      0.73964660	      0.00000000	     -0.39076758	      0.00000154	      1.75485856	      0.00000333
    142.51300000	      0.00000000	      0.00000000	      0.00000000	      0.00000000	      0.00000000	      0.00000000	      0.00000000	      0.00000000	      0.00000000	     47.58592551	     74.79533858	    -11.21810536	      0.74070124	      0.00000000	     -0.39260627	      0.00000142	      1.90915967	      0.00000309
    142.51400000	      0.00000000	      0.00000000	      0.00000000	      0.00000000	      0.00000000	      0.00000000	      0.00000000	      0.00000000	      0.00000000	     45.55105617	     70.39680827	    -11.56015845	      0.74226743	      0.00000000	     -0.39436902	      0.00000129	      2.01308878	      0.00000289
    142.51500000	      0.00000000	      0.00000000	      0.00000000	      0.00000000	      0.00000000	      0.00000000	      0.00000000	      0.00000000	      0.00000000	     43.60071365	     66.48909519	    -12.10967531	      0.74415231	      0.00000000	     -0.39599621	      0.00000116	      2.07183564	      0.00000273
    142.51600000	      0.00000000	      0.00000000	      0.00000000	      0.00000000	      0.00000000	      0.00000000	      0.00000000	      0.00000000	      0.00000000	     41.77516647	     63.09907570	    -12.78061163	      0.74616280	      0.00000000	     -0.39743668	      0.00000103	      2.09284148	      0.00000261
    142.51700000	      0.00000000	      0.00000000	      0.00000000	      0.00000000	      0.00000000	      0.00000000	      0.00000000	      0.00000000	      0.00000000	     40.11782859	     60.23934554	    -13.49240374	      0.74812557	      0.00000000	     -0.39865322	      0.00000091	      2.08522346	      0.00000252
    142.51800000	      0.00000000	      0.00000000	      0.00000000	      0.00000000	      0.00000000	      0.00000000	      0.00000000	      0.00000000	      0.00000000	     38.66889360	     57.90599049	    -14.17646625	      0.74990271	      0.00000000	     -0.39962726	      0.00000080	      2.05881566	      0.00000247
    142.51900000	      0.00000000	      0.00000000	      0.00000000	      0.00000000	      0.00000000	      0.00000000	      0.00000000	      0.00000000	      0.00000000	     37.45894369	     56.07737385	    -14.78104716	      0.75140099	      0.00000000	     -0.40036108	      0.00000070	      2.02303779	      0.00000245
    142.52000000	      0.00000000	      0.00000000	      0.00000000	      0.00000000	      0.00000000	      0.00000000	      0.00000000	      0.00000000	      0.00000000	     36.50349770	     54.71400095	    -15.27391768	      0.75257435	      0.00000000	     -0.40087652	      0.00000061	      1.98585192	      0.00000244
    142.52100000	      0.00000000	      0.00000000	      0.00000000	      0.00000000	      0.00000000	      0.00000000	      0.00000000	      0.00000000	      0.00000000	      0.00000000	      0.00000000	      0.00000000	      0.00000000	      0.00000000	      0.00000000	      0.00000000	      0.00000000	      0.00000000
    142.52200000	      0.00000000	      0.00000000	      0.00000000	      0.00000000	      0.00000000	      0.00000000	      0.00000000	      0.00000000	      0.00000000	      0.00000000	      0.00000000	      0.00000000	      0.00000000	      0.00000000	      0.00000000	      0.00000000	      0.00000000	      0.00000000
    142.52300000	      0.00000000	      0.00000000	      0.00000000	      0.00000000	      0.00000000	      0.00000000	      0.00000000	      0.00000000	      0.00000000	      0.00000000	      0.00000000	      0.00000000	      0.00000000	      0.00000000	      0.00000000	      0.00000000	      0.00000000	      0.00000000
    142.52400000	      0.00000000	      0.00000000	      0.00000000	      0.00000000	      0.00000000	      0.00000000	      0.00000000	      0.00000000	      0.00000000	      0.00000000	      0.00000000	      0.00000000	      0.00000000	      0.00000000	      0.00000000	      0.00000000	      0.00000000	      0.00000000
    142.52500000	      0.00000000	      0.00000000	      0.00000000	      0.00000000	      0.00000000	      0.00000000	      0.00000000	      0.00000000	      0.00000000	      0.00000000	      0.00000000	      0.00000000	      0.00000000	      0.00000000	      0.00000000	      0.00000000	      0.00000000	      0.00000000
    142.52600000	      0.00000000	      0.00000000	      0.00000000	      0.00000000	      0.00000000	      0.00000000	      0.00000000	      0.00000000	      0.00000000	      0.00000000	      0.00000000	      0.00000000	      0.00000000	      0.00000000	      0.00000000	      0.00000000	      0.00000000	      0.00000000
    142.52700000	      0.00000000	      0.00000000	      0.00000000	      0.00000000	      0.00000000	      0.00000000	      0.00000000	      0.00000000	      0.00000000	      0.00000000	      0.00000000	      0.00000000	      0.00000000	      0.00000000	      0.00000000	      0.00000000	      0.00000000	      0.00000000
    142.52800000	      0.00000000	      0.00000000	      0.00000000	      0.00000000	      0.00000000	      0.00000000	      0.00000000	      0.00000000	      0.00000000	      0.00000000	      0.00000000	      0.00000000	      0.00000000	      0.00000000	      0.00000000	      0.00000000	      0.00000000	      0.00000000
    142.52900000	      0.00000000	      0.00000000	      0.00000000	      0.00000000	      0.00000000	      0.00000000	      0.00000000	      0.00000000	      0.00000000	      0.00000000	      0.00000000	      0.00000000	      0.00000000	      0.00000000	      0.00000000	      0.00000000	      0.00000000	      0.00000000
    142.53000000	      0.00000000	      0.00000000	      0.00000000	      0.00000000	      0.00000000	      0.00000000	      0.00000000	      0.00000000	      0.00000000	      0.00000000	      0.00000000	      0.00000000	      0.00000000	      0.00000000	      0.00000000	      0.00000000	      0.00000000	      0.00000000
    142.53100000	      0.00000000	      0.00000000	      0.00000000	      0.00000000	      0.00000000	      0.00000000	      0.00000000	      0.00000000	      0.00000000	      0.00000000	      0.00000000	      0.00000000	      0.00000000	      0.00000000	      0.00000000	      0.00000000	      0.00000000	      0.00000000
    142.53200000	      0.00000000	      0.00000000	      0.00000000	      0.00000000	      0.00000000	      0.00000000	      0.00000000	      0.00000000	      0.00000000	      0.00000000	      0.00000000	      0.00000000	      0.00000000	      0.00000000	      0.00000000	      0.00000000	      0.00000000	      0.00000000
    142.53300000	      0.00000000	      0.00000000	      0.00000000	      0.00000000	      0.00000000	      0.00000000	      0.00000000	      0.00000000	      0.00000000	      0.00000000	      0.00000000	      0.00000000	      0.00000000	      0.00000000	      0.00000000	      0.00000000	      0.00000000	      0.00000000
